<?xml version="1.0" standalone="no"?>
<!DOCTYPE svg PUBLIC "-//W3C//DTD SVG 20010904//EN"
 "http://www.w3.org/TR/2001/REC-SVG-20010904/DTD/svg10.dtd">
<svg version="1.0" xmlns="http://www.w3.org/2000/svg"
 width="431.000000pt" height="431.000000pt" viewBox="0 0 431.000000 431.000000"
 preserveAspectRatio="xMidYMid meet">
<metadata>
Created by potrace 1.11, written by Peter Selinger 2001-2013
</metadata>
<g transform="translate(0.000000,431.000000) scale(0.100000,-0.100000)"
fill="#000000" stroke="none">
<path d="M898 4051 c-39 -40 -48 -56 -48 -85 l0 -35 -47 14 -48 15 -52 -52
c-43 -43 -53 -59 -53 -86 0 -31 -2 -34 -25 -28 -14 3 -35 8 -47 11 -18 5 -35
-6 -75 -45 l-53 -51 0 -1199 0 -1199 53 -15 c28 -8 73 -20 99 -26 l47 -12 3
-101 3 -102 95 -26 95 -25 3 -102 c1 -56 5 -102 7 -102 6 0 1011 -268 1050
-280 17 -5 167 -46 335 -90 168 -45 346 -92 395 -106 271 -73 430 -116 515
-138 l95 -25 52 51 c43 43 53 59 53 86 0 31 2 34 25 28 14 -3 36 -9 49 -12 19
-5 34 4 75 46 41 42 51 58 51 86 0 19 1 34 3 34 1 0 23 -7 48 -14 l46 -14 52
52 51 52 0 1200 0 1200 -97 25 -98 25 -3 102 -3 101 -42 12 c-23 6 -68 18 -99
26 l-57 16 -3 100 -3 101 -30 8 c-16 4 -309 83 -650 174 -795 212 -1440 386
-1580 424 -60 16 -117 30 -125 30 -8 0 -36 -22 -62 -49z"/>
</g>
</svg>
